HIERARCHY
ROOT Hips
{
    OFFSET 0.000000 0.000000 0.000000
    CHANNELS 6 Xposition Yposition Zposition Zrotation Yrotation Xrotation
    JOINT LeftUpLeg
    {
        OFFSET 1.363060 -1.794630 0.839290
        CHANNELS 3 Zrotation Yrotation Xrotation
        JOINT LeftLeg
        {
            OFFSET 2.448110 -6.726130 0.000000
            CHANNELS 3 Zrotation Yrotation Xrotation
            JOINT LeftFoot
            {
                OFFSET 2.562200 -7.039589 0.000000
                CHANNELS 3 Zrotation Yrotation Xrotation
                JOINT LeftToeBase
                {
                    OFFSET 0.157640 -0.433110 2.322550
                    CHANNELS 3 Zrotation Yrotation Xrotation
                    End Site
                    {
                        OFFSET 0.000000 0.000000 0.000000
                    }
                }
            }
        }
    }
    JOINT RightUpLeg
    {
        OFFSET -1.305520 -1.794630 0.839290
        CHANNELS 3 Zrotation Yrotation Xrotation
        JOINT RightLeg
        {
            OFFSET -2.542530 -6.985549 0.000000
            CHANNELS 3 Zrotation Yrotation Xrotation
            JOINT RightFoot
            {
                OFFSET -2.568260 -7.056230 0.000000
                CHANNELS 3 Zrotation Yrotation Xrotation
                JOINT RightToeBase
                {
                    OFFSET -0.164730 -0.452590 2.363150
                    CHANNELS 3 Zrotation Yrotation Xrotation
                    End Site
                    {
                        OFFSET 0.000000 0.000000 0.000000
                    }
                }
            }
        }
    }
    JOINT Spine
    {
        OFFSET 0.028270 2.035590 -0.193380
        CHANNELS 3 Zrotation Yrotation Xrotation
        JOINT Spine1
        {
            OFFSET 0.056720 2.048850 -0.042750
            CHANNELS 3 Zrotation Yrotation Xrotation
            JOINT Neck1
            {
                OFFSET -0.054170 1.746240 0.172020
                CHANNELS 3 Zrotation Yrotation Xrotation
                JOINT Head
                {
                    OFFSET 0.104070 1.761360 -0.123970
                    CHANNELS 3 Zrotation Yrotation Xrotation
                    End Site
                    {
                        OFFSET 0.000000 0.000000 0.000000
                    }
                }
            }
            JOINT LeftShoulder
            {
                OFFSET 0.000000 0.000000 0.000000
                CHANNELS 3 Zrotation Yrotation Xrotation
                JOINT LeftArm
                {
                    OFFSET 3.362410 1.200890 -0.311210
                    CHANNELS 3 Zrotation Yrotation Xrotation
                    JOINT LeftForeArm
                    {
                        OFFSET 4.983000 -0.000000 -0.000000
                        CHANNELS 3 Zrotation Yrotation Xrotation
                        JOINT LeftHand
                        {
                            OFFSET 3.483560 -0.000000 -0.000000
                            CHANNELS 3 Zrotation Yrotation Xrotation
                            End Site
                            {
                                OFFSET 0.000000 0.000000 0.000000
                            }
                        }
                    }
                }
            }
            JOINT RightShoulder
            {
                OFFSET 0.000000 0.000000 0.000000
                CHANNELS 3 Zrotation Yrotation Xrotation
                JOINT RightArm
                {
                    OFFSET -3.136600 1.374050 -0.404650
                    CHANNELS 3 Zrotation Yrotation Xrotation
                    JOINT RightForeArm
                    {
                        OFFSET -5.241900 -0.000000 -0.000000
                        CHANNELS 3 Zrotation Yrotation Xrotation
                        JOINT RightHand
                        {
                            OFFSET -3.444170 -0.000000 -0.000000
                            CHANNELS 3 Zrotation Yrotation Xrotation
                            End Site
                            {
                                OFFSET 0.000000 0.000000 0.000000
                            }
                        }
                    }
                }
            }
        }
    }
}
MOTION
Frames: 7
Frame Time: 0.016667
20.333561 16.604015 -16.545902 4.449029 -9.631714 35.665051 -3.130668 -16.172333 -60.893219 -6.042606 -6.827424 23.454428 -9.257410 41.315022 -5.396636 -0.651296 -1.696528 -3.228802 9.951149 4.495174 -53.329754 51.376099 16.811941 84.206551 4.915358 -54.696648 -48.565559 0.026868 0.114692 -1.564004 3.900253 0.312041 10.317507 -3.329927 0.313542 0.752353 4.672699 -0.784525 5.747637 -9.109856 0.260304 -3.827161 -5.617104 -13.709910 3.462608 -67.400726 -19.168865 41.347675 16.950987 -7.659172 -18.008942 10.082037 -3.214552 -15.627721 4.720820 13.841445 6.535716 60.103897 29.484001 32.439472 -8.219248 6.855527 -7.367257 -18.002619 -1.485591 -5.918599 
20.389948 16.594055 -16.402737 4.364426 -9.401702 35.796398 -4.736614 -14.818683 -62.027687 -6.629975 -6.614468 25.136154 -8.905256 40.154800 -3.347791 -0.561457 -1.480733 -2.728794 9.151376 4.787045 -52.738537 50.448269 16.367270 82.901649 5.251854 -53.659740 -48.668968 -0.013261 -0.023648 -1.861361 3.675627 0.091897 10.322399 -3.299318 0.187974 0.709198 4.833169 -0.676987 5.935487 -9.170046 0.300439 -4.408463 -5.634715 -13.820782 3.463407 -66.883423 -19.533497 41.390423 16.958464 -7.655836 -17.883234 9.764934 -3.205873 -15.481804 4.697750 13.768431 6.474730 60.320869 29.121239 32.679409 -8.834567 6.908579 -8.354669 -18.165777 -1.403567 -6.802527 
20.452051 16.586779 -16.263508 4.155414 -9.298621 36.112659 -7.525259 -12.977209 -63.547649 -7.954960 -8.806256 28.054518 -6.126173 39.939247 -1.314685 -0.426225 -1.831318 -1.472129 8.287352 5.329967 -52.217072 49.888233 16.110275 81.747345 6.151742 -52.646324 -49.256527 -0.035036 -0.102032 -1.790658 3.496481 -0.023731 10.313047 -3.238404 0.111477 0.597780 4.598759 -0.803485 6.274784 -8.833444 0.169762 -5.765779 -5.615595 -13.784090 3.266602 -66.478706 -19.893234 40.879894 16.941303 -7.944950 -17.711742 9.699833 -3.123868 -15.199143 4.806488 13.733238 6.480206 60.184887 28.802433 32.739918 -9.021106 7.153791 -8.458172 -17.495056 -1.383032 -6.849244 
20.506987 16.578718 -16.130138 3.962088 -9.359198 36.361412 -10.955400 -11.120305 -65.353493 -10.854657 -13.577926 33.262177 -3.494359 42.006649 -1.585239 -0.283894 -1.489696 -0.719610 8.041430 5.410583 -52.014126 49.663387 16.002979 81.565735 6.551639 -52.099594 -49.161160 0.022106 0.106780 -2.117842 3.145351 -0.000867 10.392996 -3.167967 0.133644 0.530597 4.636395 -0.772784 6.297998 -9.127120 0.205390 -5.745567 -5.406403 -13.853565 3.081988 -66.271866 -20.417391 40.280106 17.052027 -8.069282 -17.684746 9.775456 -3.349435 -15.145858 4.698502 13.757265 6.576853 60.246716 28.577425 33.367828 -9.355459 7.216773 -8.938455 -17.351379 -1.498387 -7.215057 
20.570648 16.567869 -15.997241 3.614376 -9.514112 36.628559 -14.762583 -9.314764 -67.109200 -11.829385 -16.053719 36.970917 -1.758839 41.623539 -1.298877 -0.076180 -1.130800 0.445222 8.176858 5.298946 -51.946625 49.939144 16.094049 81.954857 6.499655 -51.985855 -48.799267 0.014622 0.089477 -2.729512 2.881765 0.083555 10.494611 -3.149275 0.186384 0.460206 4.336602 -0.936545 6.526595 -8.612604 0.132246 -6.112764 -5.252120 -13.754807 2.915563 -66.104111 -20.827682 39.491772 17.468088 -8.492223 -17.956671 10.063777 -3.047746 -15.153872 4.638789 13.804911 6.611138 60.279461 28.372606 33.774502 -9.498137 7.272479 -8.957000 -17.330145 -1.429558 -7.218885 
20.637350 16.563145 -15.864443 3.347614 -9.473100 36.735058 -15.735185 -8.974807 -67.671989 -10.990437 -14.589079 37.430950 -0.607984 39.556229 -0.926749 -0.191374 -0.935233 -0.528584 8.440949 4.813856 -51.653805 50.431389 16.392488 82.437210 6.798595 -51.820362 -49.045589 0.006995 0.062322 -2.788283 2.706783 0.087327 10.766833 -3.159428 0.202059 0.373960 4.078779 -1.164832 6.800304 -8.295363 -0.024893 -6.495636 -5.094912 -13.742425 2.751833 -66.081352 -21.141724 39.187111 18.174595 -8.899307 -18.813803 9.904954 -2.979146 -15.704140 4.560728 13.866112 6.641403 60.153591 28.255835 33.934792 -9.212235 7.287909 -8.647161 -17.413824 -1.207369 -7.029962 
20.699011 16.563873 -15.732536 3.114191 -9.336382 36.941799 -14.062535 -9.956200 -67.383018 -11.301611 -13.491083 37.578388 0.079584 40.478699 -1.464660 -0.131663 -1.062504 -0.004089 8.641324 4.390815 -51.287884 51.131187 16.878901 82.905487 7.190680 -52.016438 -49.456181 0.005477 0.057264 -2.823866 2.456607 0.092438 10.942151 -3.123563 0.218414 0.361967 3.870086 -1.159430 6.884147 -7.960807 0.040706 -6.196148 -4.963125 -13.712858 2.705019 -66.031670 -21.565680 39.179008 19.031885 -9.349256 -19.677364 9.887430 -2.629273 -16.154308 4.558547 13.848269 6.648699 60.072273 28.245968 34.473087 -9.117274 7.123154 -8.398836 -17.207205 -1.076269 -6.855253 
